fd_1_states
version=1
nRows=47
nColumns=17
inDegrees=yes

# SIMM Motion File Header:
name fd_1_states
datacolumns 17
datarows 47
otherdata 1
range 0.329160 0.358848
endheader
time	/jointset/r_shoulder/r_shoulder_elev/value	/jointset/r_shoulder/r_shoulder_elev/speed	/jointset/r_elbow/r_elbow_flex/value	/jointset/r_elbow/r_elbow_flex/speed	/forceset/TRIlong/activation	/forceset/TRIlong/fiber_length	/forceset/TRIlat/activation	/forceset/TRIlat/fiber_length	/forceset/TRImed/activation	/forceset/TRImed/fiber_length	/forceset/BIClong/activation	/forceset/BIClong/fiber_length	/forceset/BICshort/activation	/forceset/BICshort/fiber_length	/forceset/BRA/activation	/forceset/BRA/fiber_length
      0.329160	     -0.315108	     -3.083693	     92.405278	    281.388405	      0.021733	      0.170196	      0.163297	      0.103848	      0.160110	      0.098907	      0.820221	      0.094014	      0.222574	      0.094849	      0.023316	      0.067832
      0.329928	     -0.317483	     -3.101478	     92.621450	    281.423264	      0.021715	      0.170259	      0.163669	      0.103920	      0.160437	      0.098980	      0.821651	      0.093826	      0.222940	      0.094663	      0.023303	      0.067745
      0.330696	     -0.319874	     -3.122196	     92.837649	    281.456273	      0.021745	      0.170337	      0.164438	      0.103992	      0.161260	      0.099052	      0.823811	      0.093638	      0.223777	      0.094477	      0.023290	      0.067659
      0.331464	     -0.322279	     -3.140135	     93.053873	    281.489285	      0.021779	      0.170399	      0.165212	      0.104064	      0.162099	      0.099124	      0.826029	      0.093450	      0.224635	      0.094290	      0.023276	      0.067572
      0.332233	     -0.324699	     -3.158832	     93.270118	    281.510917	      0.021809	      0.170477	      0.165909	      0.104136	      0.162856	      0.099195	      0.828147	      0.093262	      0.225416	      0.094103	      0.023263	      0.067485
      0.333001	     -0.327131	     -3.174242	     93.486379	    281.531584	      0.021834	      0.170539	      0.166537	      0.104207	      0.163537	      0.099267	      0.830170	      0.093074	      0.226128	      0.093916	      0.023250	      0.067398
      0.333769	     -0.329576	     -3.191257	     93.702653	    281.543477	      0.021857	      0.170618	      0.167104	      0.104279	      0.164150	      0.099338	      0.832103	      0.092885	      0.226777	      0.093728	      0.023238	      0.067311
      0.334537	     -0.332033	     -3.205652	     93.918937	    281.558267	      0.021876	      0.170679	      0.167615	      0.104351	      0.164703	      0.099410	      0.833949	      0.092697	      0.227368	      0.093541	      0.023225	      0.067224
      0.335305	     -0.334502	     -3.222647	     94.135230	    281.567040	      0.021893	      0.170759	      0.168075	      0.104424	      0.165201	      0.099482	      0.835714	      0.092509	      0.227907	      0.093354	      0.023212	      0.067137
      0.336074	     -0.336983	     -3.237502	     94.351531	    281.581626	      0.021907	      0.170819	      0.168491	      0.104496	      0.165650	      0.099555	      0.837400	      0.092320	      0.228399	      0.093166	      0.023200	      0.067050
      0.336842	     -0.339477	     -3.255711	     94.567843	    281.591775	      0.021919	      0.170900	      0.168866	      0.104569	      0.166055	      0.099627	      0.839012	      0.092132	      0.228848	      0.092979	      0.023188	      0.066962
      0.337610	     -0.341985	     -3.272016	     94.784164	    281.609535	      0.021930	      0.170959	      0.169205	      0.104642	      0.166420	      0.099700	      0.840553	      0.091944	      0.229257	      0.092792	      0.023176	      0.066875
      0.338378	     -0.344505	     -3.292222	     95.000499	    281.623441	      0.021940	      0.171041	      0.169510	      0.104715	      0.166750	      0.099773	      0.842026	      0.091756	      0.229630	      0.092605	      0.023164	      0.066787
      0.339146	     -0.347042	     -3.310574	     95.216847	    281.645910	      0.021948	      0.171099	      0.169786	      0.104788	      0.167047	      0.099846	      0.843435	      0.091568	      0.229971	      0.092418	      0.023152	      0.066700
      0.339915	     -0.349593	     -3.333233	     95.433211	    281.664377	      0.021955	      0.171182	      0.170035	      0.104861	      0.167315	      0.099919	      0.844782	      0.091380	      0.230282	      0.092231	      0.023140	      0.066612
      0.340092	     -0.350186	     -3.337585	     95.483269	    281.671187	      0.021954	      0.171193	      0.170058	      0.104878	      0.167340	      0.099936	      0.844955	      0.091337	      0.230412	      0.092188	      0.023137	      0.066592
      0.340270	     -0.350780	     -3.342475	     95.533329	    281.677241	      0.021950	      0.171207	      0.169988	      0.104895	      0.167267	      0.099953	      0.844513	      0.091294	      0.230841	      0.092145	      0.023129	      0.066571
      0.340509	     -0.351579	     -3.349584	     95.600643	    281.685158	      0.021944	      0.171227	      0.169893	      0.104918	      0.167166	      0.099976	      0.843905	      0.091235	      0.231413	      0.092087	      0.023119	      0.066544
      0.341490	     -0.354882	     -3.382001	     95.877071	    281.725672	      0.021918	      0.171313	      0.169507	      0.105014	      0.166757	      0.100071	      0.841476	      0.090998	      0.233596	      0.091846	      0.023079	      0.066432
      0.342164	     -0.357170	     -3.409025	     96.066963	    281.757702	      0.021901	      0.171387	      0.169245	      0.105080	      0.166480	      0.100137	      0.839871	      0.090836	      0.234952	      0.091680	      0.023051	      0.066355
      0.342838	     -0.359477	     -3.435934	     96.256879	    281.798728	      0.021884	      0.171438	      0.168988	      0.105146	      0.166207	      0.100203	      0.838314	      0.090674	      0.236202	      0.091514	      0.023024	      0.066277
      0.343512	     -0.361803	     -3.467143	     96.446822	    281.836891	      0.021867	      0.171503	      0.168733	      0.105212	      0.165937	      0.100269	      0.836805	      0.090514	      0.237355	      0.091347	      0.022996	      0.066200
      0.344449	     -0.365073	     -3.511750	     96.710933	    281.892017	      0.021844	      0.171583	      0.168385	      0.105303	      0.165569	      0.100360	      0.834783	      0.090291	      0.238810	      0.091115	      0.022959	      0.066093
      0.345094	     -0.367348	     -3.546287	     96.892695	    281.922245	      0.021828	      0.171655	      0.168149	      0.105367	      0.165319	      0.100423	      0.833441	      0.090139	      0.239722	      0.090955	      0.022934	      0.066019
      0.345739	     -0.369645	     -3.579473	     97.074478	    281.953061	      0.021813	      0.171704	      0.167916	      0.105430	      0.165072	      0.100486	      0.832138	      0.089987	      0.240566	      0.090796	      0.022909	      0.065944
      0.346383	     -0.371965	     -3.615795	     97.256276	    281.973991	      0.021797	      0.171765	      0.167686	      0.105493	      0.164828	      0.100549	      0.830872	      0.089835	      0.241348	      0.090636	      0.022884	      0.065870
      0.347380	     -0.375596	     -3.672258	     97.537239	    281.995553	      0.021774	      0.171851	      0.167337	      0.105591	      0.164458	      0.100647	      0.828987	      0.089601	      0.242445	      0.090389	      0.022846	      0.065756
      0.347993	     -0.377861	     -3.709914	     97.710254	    281.995551	      0.021759	      0.171920	      0.167125	      0.105651	      0.164233	      0.100707	      0.827868	      0.089457	      0.243060	      0.090237	      0.022822	      0.065685
      0.348607	     -0.380148	     -3.745855	     97.883268	    281.992277	      0.021745	      0.171967	      0.166915	      0.105711	      0.164011	      0.100767	      0.826780	      0.089313	      0.243632	      0.090085	      0.022799	      0.065614
      0.349365	     -0.383004	     -3.793526	     98.096954	    281.971812	      0.021727	      0.172039	      0.166660	      0.105785	      0.163740	      0.100841	      0.825476	      0.089135	      0.244283	      0.089898	      0.022771	      0.065527
      0.349756	     -0.384495	     -3.818163	     98.207396	    281.956652	      0.021718	      0.172073	      0.166529	      0.105823	      0.163602	      0.100879	      0.824820	      0.089043	      0.244598	      0.089801	      0.022757	      0.065481
      0.349920	     -0.385120	     -3.828633	     98.253515	    281.949009	      0.021715	      0.172088	      0.166475	      0.105839	      0.163545	      0.100895	      0.824549	      0.089005	      0.244726	      0.089760	      0.022751	      0.065462
      0.349990	     -0.385390	     -3.833155	     98.273346	    281.945509	      0.021713	      0.172094	      0.166452	      0.105846	      0.163520	      0.100902	      0.824433	      0.088989	      0.244780	      0.089743	      0.022748	      0.065454
      0.350017	     -0.385493	     -3.834893	     98.280955	    281.944132	      0.021712	      0.172096	      0.166472	      0.105849	      0.163540	      0.100904	      0.824481	      0.088982	      0.245033	      0.089736	      0.022747	      0.065451
      0.350044	     -0.385597	     -3.836632	     98.288564	    281.942735	      0.021712	      0.172099	      0.166614	      0.105852	      0.163681	      0.100907	      0.824754	      0.088976	      0.245787	      0.089730	      0.022746	      0.065448
      0.350179	     -0.386115	     -3.845306	     98.326609	    281.935297	      0.021709	      0.172111	      0.167316	      0.105864	      0.164377	      0.100920	      0.826109	      0.088944	      0.249512	      0.089696	      0.022741	      0.065432
      0.350854	     -0.388723	     -3.885269	     98.516811	    281.876271	      0.021693	      0.172173	      0.170627	      0.105924	      0.167664	      0.100980	      0.832707	      0.088784	      0.266982	      0.089520	      0.022717	      0.065354
      0.352344	     -0.394558	     -3.941130	     98.936534	    281.581387	      0.021660	      0.172312	      0.176913	      0.106049	      0.173899	      0.101105	      0.846289	      0.088423	      0.299858	      0.089098	      0.022663	      0.065182
      0.352887	     -0.396703	     -3.951022	     99.089524	    281.432170	      0.021648	      0.172358	      0.178901	      0.106094	      0.175869	      0.101151	      0.850930	      0.088289	      0.310247	      0.088937	      0.022644	      0.065119
      0.353707	     -0.399949	     -3.960963	     99.320311	    281.182359	      0.021630	      0.172434	      0.181635	      0.106164	      0.178578	      0.101221	      0.857639	      0.088084	      0.324588	      0.088689	      0.022615	      0.065024
      0.354454	     -0.402906	     -3.965804	     99.530032	    280.950174	      0.021614	      0.172499	      0.183872	      0.106228	      0.180792	      0.101285	      0.863449	      0.087897	      0.336397	      0.088461	      0.022589	      0.064938
      0.355200	     -0.405867	     -3.971805	     99.739582	    280.724042	      0.021598	      0.172580	      0.185895	      0.106292	      0.182794	      0.101350	      0.868995	      0.087709	      0.347177	      0.088232	      0.022563	      0.064852
      0.355946	     -0.408832	     -3.975742	     99.948972	    280.526441	      0.021582	      0.172634	      0.187726	      0.106358	      0.184605	      0.101416	      0.874293	      0.087520	      0.357046	      0.088003	      0.022538	      0.064765
      0.356692	     -0.411803	     -3.987462	    100.158224	    280.352071	      0.021567	      0.172726	      0.189385	      0.106424	      0.186244	      0.101482	      0.879356	      0.087331	      0.366104	      0.087775	      0.022513	      0.064679
      0.357438	     -0.414781	     -3.997804	    100.367365	    280.228269	      0.021551	      0.172770	      0.190889	      0.106490	      0.187730	      0.101549	      0.884195	      0.087142	      0.374436	      0.087548	      0.022488	      0.064593
      0.358184	     -0.417772	     -4.020074	    100.576425	    280.137921	      0.021536	      0.172848	      0.192253	      0.106557	      0.189076	      0.101616	      0.888822	      0.086952	      0.382114	      0.087323	      0.022463	      0.064507
      0.358848	     -0.420446	     -4.042675	    100.762288	    280.103400	      0.021523	      0.172898	      0.193359	      0.106618	      0.190168	      0.101677	      0.892768	      0.086783	      0.388446	      0.087124	      0.022442	      0.064430
